<svg viewBox="0 0 42 28" xmlns="http://www.w3.org/2000/svg" fill="white">
<path d="M27 17.3l1.2-.3c4.7-1.3 13.4-3.6 13.4-9.8 0-1.5-.5-2.6-1.5-3.4-1.7-1.4-4.5-1.4-6-1.3l.6-1.3c.1-.2.1-.4 0-.6-.1-.2-.3-.3-.5-.3H1.9c-.2 0-.4.1-.5.3-.1.2-.1.4 0 .6l2.5 5.7L5 9.5c.4.9.8 1.7 1.4 2.5.8 1.1 1.4 2.3 1.9 3.5l.6 1.5 1.8 3.2c.1.1.1.3.1.4-.5 1.3-4.1 2.7-9.8 2.7-.3 0-.6.3-.6.6s.3.6.6.6h6.1v1.2c0 1 .8 1.7 1.7 1.7h18.4c1 0 1.7-.8 1.7-1.7v-1.2H35c.3 0 .6-.3.6-.6s-.3-.6-.6-.6c-5.6 0-9.2-1.4-9.8-2.7 0-.1 0-.2.1-.4l1.7-2.9zM39.4 4.7c.7.6 1.1 1.4 1.1 2.5 0 5.2-8.2 7.4-12.6 8.6-.1 0-.2 0-.3.1l.1-.4c.5-1.2 1.1-2.4 1.9-3.5.6-.8 1-1.6 1.4-2.5l2.5-5.8c1.1 0 4.2-.4 5.9 1zm-6.2-3.1l-2 4.5H4.7L2.8 1.6h30.4zM6 9.1l-.8-1.8h25.5L30 9.1c-.3.8-.8 1.6-1.3 2.3l-.9 1.5H8.2l-.9-1.5c-.5-.7-.9-1.5-1.3-2.3zm21.7 16.8c0 .3-.2.5-.5.5H8.8c-.3 0-.5-.2-.5-.5v-1.2h19.5v1.2h-.1zm-.5-2.4H8.8c1.4-.6 2.5-1.3 2.9-2.1h12.6c.4.8 1.4 1.5 2.9 2.1zm-2.9-3.7c-.1.1-.1.2-.2.4H11.8c0-.1-.1-.3-.2-.4l-1.8-3.2-.6-1.5c-.1-.4-.3-.8-.5-1.1H27c-.2.4-.3.7-.5 1.1l-.5 1.4-1.7 3.3z"/>
</svg>